<svg xmlns="http://www.w3.org/2000/svg" viewBox="0 0 256 256" shape-rendering="crispEdges" preserveAspectRatio="xMidYMid meet">
  <rect x="0" y="0" width="64" height="64" fill="#3a73b3"/>
  <rect x="64" y="0" width="64" height="64" fill="#3a73b3"/>
  <rect x="128" y="0" width="64" height="64" fill="#3a73b3"/>
  <rect x="192" y="0" width="64" height="64" fill="#3a73b3"/>
  <rect x="0" y="64" width="64" height="64" fill="#09a41e"/>
  <rect x="64" y="64" width="64" height="64" fill="#cdd3d3"/>
  <rect x="128" y="64" width="64" height="64" fill="#c95828"/>
  <rect x="192" y="64" width="64" height="64" fill="#cdd3d3"/>
  <rect x="0" y="128" width="64" height="64" fill="#cdd3d3"/>
  <rect x="64" y="128" width="64" height="64" fill="#c95828"/>
  <rect x="128" y="128" width="64" height="64" fill="#5b4131"/>
  <rect x="192" y="128" width="64" height="64" fill="#c95828"/>
  <rect x="0" y="192" width="64" height="64" fill="#cdd3d3"/>
  <rect x="64" y="192" width="64" height="64" fill="#cdd3d3"/>
  <rect x="128" y="192" width="64" height="64" fill="#c95828"/>
  <rect x="192" y="192" width="64" height="64" fill="#cdd3d3"/>
</svg>
